<svg
   width="24"
   height="24"
   viewBox="0 0 24 24"
   stroke-width="2"
   fill="none"
   stroke-linecap="round"
   stroke-linejoin="round"
   xmlns="http://www.w3.org/2000/svg">
   <style>
      .reactive {			
         stroke: #16a34a;		
      }		
      @media ( prefers-color-scheme: dark ) {
         .reactive {				
            stroke: #4ade80;			
         }		
      }	
   </style>
   <path
      stroke="none"
      fill="none"
      d="M 0,0 H 24 V 24 H 0 Z"/>
   <path
      class="reactive"
      d="m 6,6 c 0,3 1,4 4,4 4,0 6,2 6,6 0,4 1,6 6,6 -7,0 -9,-2 -10,-5"/>
   <path
      class="reactive"
      d="m 12,14 c 0,0 -3,-0.5 -3,2 0,2 2,6 2,6 H 6"/>
   <path
      class="reactive"
      d="M 8,12 C 5,12 5,14 5,15"/>
   <path
      class="reactive"
      d="M 2,4 C 4,4 6,4 7,2"/>
</svg>
